<svg xmlns="http://www.w3.org/2000/svg" xmlns:xlink="http://www.w3.org/1999/xlink" width="500" zoomAndPan="magnify" viewBox="0 0 375 374.999991" height="500" preserveAspectRatio="xMidYMid meet" version="1.0"><defs><g/></defs><g fill="#000000" fill-opacity="1"><g transform="translate(9.585689, 355.189899)"><g><path d="M 186.265625 6.785156 C 279.570312 6.785156 355.910156 -63.785156 355.910156 -169.640625 C 355.910156 -275.5 279.570312 -346.070312 186.265625 -346.070312 C 92.964844 -346.070312 16.964844 -275.5 16.964844 -169.640625 C 16.964844 -63.785156 92.964844 6.785156 186.265625 6.785156 Z M 44.105469 -169.640625 C 44.105469 -271.429688 107.894531 -339.285156 186.265625 -339.285156 C 264.640625 -339.285156 328.765625 -271.429688 328.765625 -169.640625 C 328.765625 -67.855469 264.640625 0 186.265625 0 C 107.894531 0 44.105469 -67.855469 44.105469 -169.640625 Z M 44.105469 -169.640625 "/></g></g></g><g fill="#000000" fill-opacity="1"><g transform="translate(44.939303, 350.320625)"><g><path d="M 18.085938 -69.386719 C 18.085938 -24.335938 73.332031 6.578125 153.894531 6.578125 C 219.664062 6.578125 285.761719 -24.335938 285.761719 -91.417969 C 285.761719 -227.554688 46.367188 -157.84375 46.367188 -248.273438 C 46.367188 -300.558594 85.828125 -328.839844 147.976562 -328.839844 C 202.566406 -328.839844 252.21875 -301.875 261.753906 -256.164062 C 271.292969 -259.453125 274.910156 -267.675781 274.910156 -277.867188 C 274.910156 -319.632812 205.851562 -335.414062 153.566406 -335.414062 C 92.074219 -335.414062 23.019531 -310.753906 23.019531 -246.628906 C 23.019531 -116.078125 262.085938 -205.195312 262.085938 -82.210938 C 262.085938 -27.953125 210.785156 0 153.894531 0 C 96.019531 0 43.40625 -36.171875 43.40625 -71.6875 C 43.40625 -81.878906 47.023438 -90.101562 56.558594 -93.390625 C 51.957031 -97.335938 47.023438 -98.980469 42.421875 -98.980469 C 29.59375 -98.980469 18.085938 -86.8125 18.085938 -69.386719 Z M 18.085938 -69.386719 "/></g></g></g></svg>